<svg xmlns="http://www.w3.org/2000/svg" width="31" height="28" viewBox="0 0 31 28">
  <title>map-icon-2</title>
  <g id="圖層_2" data-name="圖層 2">
    <g id="圖層_1-2" data-name="圖層 1">
      <rect x="0.5" y="0.5" width="26" height="27" fill="#fff" stroke="#5d0c75" stroke-miterlimit="10"/>
      <rect x="6.5" y="6.5" width="9" height="0.92" fill="#fff" stroke="#5d0c75" stroke-miterlimit="10"/>
      <rect x="21.75" y="4.5" width="8.75" height="19" fill="#fff" stroke="#5d0c75" stroke-miterlimit="10"/>
      <path d="M6.71,13.86A.75.75,0,1,0,6,13.11.76.76,0,0,0,6.71,13.86Z" fill="#5d0c75"/>
      <path d="M10.71,13.86a.75.75,0,1,0-.75-.75A.76.76,0,0,0,10.71,13.86Z" fill="#5d0c75"/>
      <path d="M14.71,13.86a.75.75,0,0,0,0-1.5h0a.75.75,0,0,0,0,1.5Z" fill="#5d0c75"/>
      <path d="M6.71,17.86A.75.75,0,1,0,6,17.11.76.76,0,0,0,6.71,17.86Z" fill="#5d0c75"/>
      <path d="M10.71,17.86a.75.75,0,1,0-.75-.75A.76.76,0,0,0,10.71,17.86Z" fill="#5d0c75"/>
      <path d="M14.71,17.86a.75.75,0,0,0,0-1.5h0a.75.75,0,0,0,0,1.5Z" fill="#5d0c75"/>
      <path d="M6.71,21.86A.75.75,0,1,0,6,21.11.76.76,0,0,0,6.71,21.86Z" fill="#5d0c75"/>
      <path d="M10.71,21.86a.75.75,0,1,0-.75-.75A.76.76,0,0,0,10.71,21.86Z" fill="#5d0c75"/>
      <path d="M14.71,21.86a.75.75,0,0,0,0-1.5h0a.75.75,0,0,0,0,1.5Z" fill="#5d0c75"/>
    </g>
  </g>
</svg>
