<svg id="Layer_1" data-name="Layer 1" xmlns="http://www.w3.org/2000/svg" viewBox="0 0 500 500"><defs><style>.cls-1{fill:#ed2b2f;}.cls-2{fill:#be2126;}.cls-3{fill:#ffd03b;}.cls-4{fill:#faac48;}.cls-5{fill:#da8027;}.cls-6{fill:#e29a45;}.cls-7{fill:none;stroke:#000;stroke-linecap:round;stroke-linejoin:round;stroke-width:20px;}</style></defs><title>wedding-rings</title><path class="cls-1" d="M333,141.19a155.22,155.22,0,0,1,39.71,5.15l37.35-58.1L378,48.47H288L255.94,88.24l37.34,58.1A155.3,155.3,0,0,1,333,141.19Z"/><path class="cls-2" d="M333,141.19a155.22,155.22,0,0,1,39.71,5.15l37.35-58.1H255.94l37.34,58.1A155.3,155.3,0,0,1,333,141.19Z"/><path class="cls-3" d="M333,141.19a155.14,155.14,0,0,0-116.08,258.1A114.87,114.87,0,0,0,250,375.06a115,115,0,1,1,33.09,24.21,155.55,155.55,0,0,1-33.18,28.12A155.16,155.16,0,1,0,333,141.19Z"/><path class="cls-4" d="M250,217.71A115,115,0,1,1,217,193.49a155.48,155.48,0,0,1,33.08-28.17,155.24,155.24,0,1,0,33,28.08A114.44,114.44,0,0,0,250,217.71Z"/><path class="cls-5" d="M250,217.71a115.61,115.61,0,0,1,18.72,26.37,114.58,114.58,0,0,1,32.93-24.49,155.81,155.81,0,0,0-18.64-26.19A114.44,114.44,0,0,0,250,217.71Z"/><path class="cls-6" d="M283.1,399.27a155.55,155.55,0,0,1-33.18,28.12,155.09,155.09,0,0,0,31.86,15.38,156,156,0,0,0,34.54-33.21A115,115,0,0,1,283.1,399.27Z"/><path class="cls-7" d="M333,141.19a155.14,155.14,0,0,0-116.08,258.1A114.87,114.87,0,0,0,250,375.06a115,115,0,1,1,33.09,24.21,155.55,155.55,0,0,1-33.18,28.12A155.16,155.16,0,1,0,333,141.19Z"/><path class="cls-7" d="M250,217.71A115,115,0,1,1,217,193.49a155.48,155.48,0,0,1,33.08-28.17,155.24,155.24,0,1,0,33,28.08A114.44,114.44,0,0,0,250,217.71Z"/><path class="cls-7" d="M333,141.19a155.22,155.22,0,0,1,39.71,5.15l37.35-58.1L378,48.47H288L255.94,88.24l37.34,58.1A155.3,155.3,0,0,1,333,141.19Z"/><polyline class="cls-7" points="318.87 48.47 300.06 88.24 321.4 141.19"/><polyline class="cls-7" points="347.13 48.47 365.93 88.24 344.6 141.19"/><line class="cls-7" x1="255.94" y1="88.24" x2="410.06" y2="88.24"/></svg>